<?xml version="1.0" standalone="no"?>
<!DOCTYPE svg PUBLIC "-//W3C//DTD SVG 20010904//EN"
 "http://www.w3.org/TR/2001/REC-SVG-20010904/DTD/svg10.dtd">
<svg version="1.0" xmlns="http://www.w3.org/2000/svg"
 width="900.000000pt" height="900.000000pt" viewBox="0 0 900.000000 900.000000"
 preserveAspectRatio="xMidYMid meet">
<metadata>
Created by potrace 1.11, written by Peter Selinger 2001-2013
</metadata>
<g transform="translate(0.000000,900.000000) scale(0.100000,-0.100000)"
fill="#000000" stroke="none">
<path d="M4488 7940 c-35 -10 85 77 -1345 -981 -689 -510 -1263 -936 -1277
-946 -13 -10 -29 -28 -35 -41 -8 -16 -11 -454 -11 -1432 l0 -1410 -910 0 -910
0 0 -80 0 -80 933 0 933 0 1292 -954 c711 -525 1303 -957 1317 -960 14 -4 39
0 57 8 18 7 611 439 1318 960 l1285 946 932 0 933 0 0 80 0 80 -910 0 -910 0
0 1410 0 1410 -80 0 -80 0 -2 -1383 -3 -1383 -1217 679 -1218 680 0 1679 0
1679 -25 24 c-26 27 -27 27 -67 15z m-315 -508 c-497 -943 -1090 -2051 -1098
-2051 -14 0 -1020 566 -1020 574 0 8 2176 1623 2188 1624 4 1 -27 -66 -70
-147z m243 -2799 c-6 -7 -1191 665 -1189 674 2 8 1168 2208 1181 2228 4 5 8
-644 10 -1444 1 -800 0 -1456 -2 -1458z m-1922 888 c269 -149 494 -275 499
-280 6 -6 -165 -338 -473 -918 -266 -499 -496 -930 -511 -958 l-29 -50 0 1244
c0 990 3 1242 13 1238 6 -3 232 -127 501 -276z m1319 -736 l607 -339 0 -658 0
-658 -1181 0 -1181 0 29 53 c17 28 261 485 543 1015 l512 963 32 -19 c17 -10
304 -171 639 -357z m1867 -1040 c596 -333 1086 -608 1089 -610 2 -3 -489 -5
-1092 -5 l-1097 0 0 610 c0 336 4 610 8 610 5 0 496 -272 1092 -605z m-1260
-1616 c0 -543 -3 -839 -10 -837 -12 4 -2270 1670 -2270 1674 0 2 513 4 1140 4
l1140 0 0 -841z m2385 798 c-33 -24 -545 -402 -1138 -840 -593 -439 -1080
-797 -1082 -797 -3 0 -5 378 -5 840 l0 840 1142 0 1142 0 -59 -43z"/>
</g>
</svg>
