<?xml version="1.0" encoding="utf-8"?>
<!-- Generator: Adobe Illustrator 17.1.0, SVG Export Plug-In . SVG Version: 6.00 Build 0)  -->
<!DOCTYPE svg PUBLIC "-//W3C//DTD SVG 1.1//EN" "http://www.w3.org/Graphics/SVG/1.1/DTD/svg11.dtd">
<svg version="1.1" id="Layer_1" xmlns="http://www.w3.org/2000/svg" xmlns:xlink="http://www.w3.org/1999/xlink" x="0px" y="0px"
	 viewBox="0 0 166 71.5" enable-background="new 0 0 166 71.5" xml:space="preserve">
<g>
	<g>
		<g>
			<g>
				<g>
					<g>
						<path fill="#444242" d="M11.3,71.5c3.4,0,6.1-1.1,8.2-3c2.1-2,3.1-4.7,3.1-7.9c0-3.3-1.1-6-3.1-8c-2-2-4.8-3-8.3-3
							c-3.4,0-6.2,1-8.2,3c-2,1.9-3.1,4.6-3.1,7.9c0,3.3,1,6,3,7.9C5.1,70.5,7.8,71.5,11.3,71.5z M5.2,53.4c1.5-1.7,3.5-2.6,6.1-2.6
							c2.7,0,4.7,0.8,6.1,2.5c1.4,1.6,2.1,4.1,2.1,7.2c0,3.2-0.7,5.6-2.1,7.2c-1.4,1.7-3.4,2.5-6.1,2.5c-2.7,0-4.7-0.9-6.1-2.5
							c-1.4-1.7-2.1-4-2.1-7.2C3.1,57.5,3.8,55.2,5.2,53.4z"/>
					</g>
				</g>
				<g>
					<g>
						<path fill="#444242" d="M36,60.6c0,1.8,0,3.6-0.1,5.3c0,1.7-0.1,3.5-0.1,5.2c0.3-0.1,0.5-0.1,0.8-0.1c0.3,0,0.5,0,0.7,0
							c0.1,0,0.3,0,0.5,0c0.1,0,0.4,0,0.8,0.1c-0.1-1.1-0.2-2.1-0.2-2.9c-0.1-0.9-0.1-1.6-0.1-2.2v-4.4c0.5,0,1,0,1.4,0
							c0.4,0.1,0.7,0.1,1,0.1c2.7,0,4.8-0.5,6.3-1.6c1.5-1.1,2.2-2.6,2.2-4.6c0-1.7-0.6-3-1.8-4c-1.2-0.9-2.9-1.4-5.1-1.4
							c-0.7,0-1.6,0-2.7,0.1c-1.1,0.1-2,0.1-2.4,0.1c-0.3,0-0.5,0-0.8,0c-0.2,0-0.5,0-0.8-0.1c0.1,1.6,0.1,3.3,0.1,5.1
							C36,56.9,36,58.7,36,60.6z M38.6,54.3c0.1-1.4,0.1-2.4,0.1-3l0.1-0.1c0.8,0,1.4-0.1,1.8-0.1c2.1,0,3.6,0.3,4.5,1
							c0.9,0.7,1.4,1.9,1.4,3.5c0,1.5-0.5,2.7-1.7,3.6c-1.1,0.8-2.8,1.2-5,1.2c-0.3,0-0.7,0-0.9,0c-0.2,0-0.3,0-0.5,0v-2.8
							C38.5,56.8,38.5,55.7,38.6,54.3z"/>
					</g>
				</g>
				<g>
					<path fill="#444242" d="M62.2,67.7c0,1.2-0.1,2.3-0.2,3.3c0.2-0.1,0.4-0.1,0.7-0.1c0.2,0,0.5,0,0.8,0c0.3,0,0.5,0,0.8,0
						c0.2,0,0.5,0,0.7,0.1c0-0.5-0.1-1.2-0.1-1.9c0-0.7,0-1.8,0-3.5v-5.1v-4.4c0-1.5,0-2.7,0-3.6c0-0.9,0.1-1.7,0.1-2.4
						c-0.2,0-0.5,0-0.7,0.1c-0.2,0-0.5,0-0.8,0c-0.3,0-0.5,0-0.8,0c-0.2,0-0.4-0.1-0.6-0.1c0.1,1,0.1,2.2,0.2,3.5c0,1.3,0,3.7,0,6.9
						v2.5C62.2,65,62.2,66.5,62.2,67.7z"/>
				</g>
				<g>
					<path fill="#444242" d="M77.2,71.1c1.2-0.1,2.4-0.1,3.6-0.1c1.2,0,2.5,0,3.8,0c1.3,0,3.2,0,5.5,0c2.3,0,3.7,0,4.3,0.1
						c0-0.1,0-0.2,0-0.4c0-0.1,0-0.3,0-0.6c0-0.2,0-0.4,0-0.5c0-0.2,0-0.3,0-0.4c-1.6,0.1-3.2,0.2-4.8,0.2c-1.5,0.1-3.1,0.1-4.5,0.1
						c-0.4,0-0.9,0-1.4,0c-0.5,0-1.3,0-2.3,0c2-3.2,4.1-6.3,6.4-9.5c2.3-3.2,4.7-6.5,7.2-9.8c-2.3,0-3.9,0-5,0.1c-1.1,0-2.2,0-3.1,0
						c-1,0-2,0-3.1,0c-1.1,0-2.8-0.1-5-0.1c0,0.2,0,0.4,0,0.5c0,0.1,0,0.2,0,0.4c0,0.2,0,0.5-0.1,0.8c0,0.1,0,0.1,0,0.1
						c1.7-0.2,3.3-0.2,4.8-0.3c1.5,0,3-0.1,4.4-0.1c0.7,0,1.2,0,1.5,0c0.3,0,0.6,0,0.9,0c-2,3.1-4.1,6.3-6.3,9.6
						C81.8,64.4,79.5,67.7,77.2,71.1z"/>
				</g>
				<g>
					<g>
						<path fill="#444242" d="M104.4,71.1c0.2-0.1,0.3-0.1,0.5-0.1c0.2,0,0.4,0,0.5,0c0.1,0,0.3,0,0.5,0c0.2,0,0.4,0.1,0.5,0.1
							c0.5-1.7,1.2-3.2,1.6-4.6c0.5-1.3,1-2.5,1.5-3.7c0.4,0,0.9,0,1.4,0c0.5,0,1.3,0,2.4,0c1.1,0,1.8,0,2.4,0c0.5,0,1,0,1.4,0
							l0.6,1.3c0.5,1.2,1,2.4,1.4,3.5c0.4,1.2,0.8,2.3,1.2,3.4c0.3-0.1,0.6-0.1,0.8-0.1c0.3,0,0.5,0,0.7,0c0.3,0,0.5,0,0.7,0
							c0.3,0,0.5,0.1,0.8,0.1c-1.5-3.5-3-7.1-4.5-10.7c-1.5-3.6-2.9-7.2-4.4-10.7h-0.6c-1.4,3.1-2.8,6.4-4.3,9.9
							C108.1,63,106.3,66.8,104.4,71.1z M113.4,53.9c1,2.3,1.7,3.8,2,4.7c0.3,0.8,0.6,1.4,0.6,1.6l0.5,1.3c-0.6,0-1.3,0-2.3,0.1
							c-0.9,0-1.5,0-1.8,0c-0.4,0-0.9,0-1.4,0c-0.5-0.1-0.9-0.1-1-0.1L113.4,53.9z"/>
					</g>
				</g>
				<g>
					<g>
						<path fill="#444242" d="M142.7,60.7c2-0.3,3.4-1,4.5-2c1.1-1,1.6-2.2,1.6-3.7c0-1.6-0.6-2.9-1.7-3.7c-1.1-0.8-2.9-1.2-5.2-1.2
							c-0.7,0-1.6,0-2.7,0.1c-1.1,0-1.9,0-2.2,0c-0.2,0-0.6,0-1.2,0c-0.1,0-0.2,0-0.3,0c0,1.1,0.1,2.5,0.2,4.1c0,1.6,0,3.7,0,6.4
							c0,3.2,0,5.4,0,6.8c-0.1,1.4-0.1,2.6-0.1,3.7c0.2-0.1,0.5-0.1,0.7-0.1c0.2,0,0.5,0,0.7,0c0.2,0,0.5,0,0.7,0
							c0.2,0,0.5,0.1,0.8,0.1c-0.1-0.9-0.1-1.7-0.1-2.5c0-0.7,0-1.5,0-2.2v-5.6c0,0,0,0,0.1,0c0.2,0,0.4,0,0.5,0
							c0.3,0,0.5,0.1,0.7,0.2c0.1,0.1,0.4,0.3,0.5,0.5l3.4,4.3c0.5,0.7,1.1,1.5,1.7,2.3c0.6,0.8,1.3,1.8,2.1,3
							c0.3-0.1,0.6-0.1,0.9-0.1c0.3,0,0.6,0,0.9,0c0.3,0,0.6,0,0.9,0c0.3,0,0.6,0.1,1,0.1c-0.1-0.1-0.3-0.3-0.5-0.6
							C146.7,65.9,144.1,62.6,142.7,60.7z M139.3,59.9c-0.2,0-0.5,0-0.6,0c-0.1,0-0.3,0-0.4,0v-4v-1.3c0-0.6,0-1.2,0-1.7
							c0-0.5,0.1-1,0.2-1.5c0.1,0,0.3,0,0.5,0c1-0.1,1.6-0.1,1.9-0.1c1.7,0,3.1,0.3,3.9,1c0.9,0.7,1.3,1.7,1.3,3.1
							c0,1.5-0.5,2.7-1.7,3.4C143.3,59.5,141.6,59.9,139.3,59.9z"/>
					</g>
				</g>
				<g>
					<path fill="#444242" d="M165.8,65.6v-5.1v-4.4c0-1.5,0-2.7,0-3.6c0-0.9,0.1-1.7,0.2-2.4c-0.3,0-0.5,0-0.7,0.1
						c-0.3,0-0.5,0-0.8,0c-0.2,0-0.5,0-0.7,0c-0.2,0-0.4-0.1-0.6-0.1c0,1,0.1,2.2,0.1,3.5c0,1.3,0.1,3.7,0.1,6.9v2.5
						c0,1.9,0,3.4-0.1,4.6c0,1.2-0.1,2.3-0.1,3.3c0.2-0.1,0.4-0.1,0.7-0.1c0.2,0,0.5,0,0.8,0c0.3,0,0.5,0,0.8,0c0.2,0,0.4,0,0.7,0.1
						c-0.1-0.5-0.1-1.2-0.2-1.9C165.8,68.4,165.8,67.3,165.8,65.6z"/>
				</g>
			</g>
		</g>
		<g>
			<g>
				<path fill="#444242" d="M101.9,29.8v-8.5v-9h-1v9v8.2l-15.1-8.4V0.7c0-0.3,0-0.6-0.3-0.7c-0.3-0.1-0.7,0.2-0.7,0.2
					S69.2,11.9,69,12c-0.2,0.2-0.2,0.4-0.2,0.6v8.8v8.5H57.5v1H69l16,11.8c0.2,0.1,0.5,0.1,0.7,0l16-11.8h11.6v-1H101.9z M83.9,2.2
					l-7.3,13.8l-6.4-3.6L83.9,2.2z M69.7,21.4v-8.1l6.4,3.5l-6.4,12V21.4z M84.8,41.3L70.6,30.8h14.2V41.3z M84.8,29.8H70.2
					l6.7-12.6l7.9,4.4V29.8z M84.8,20.6l-7.4-4.2l7.4-14V20.6z M85.9,22.2l13.7,7.6H85.9V22.2z M85.9,41.3V30.8H100L85.9,41.3z"/>
			</g>
		</g>
	</g>
</g>
</svg>
